<svg xmlns="http://www.w3.org/2000/svg" width="18.963" height="20.687"><g data-name="Gruppe 7"><path data-name="Pfad 22" d="M15.73 6.465a3.232 3.232 0 113.236-3.233 3.236 3.236 0 01-3.236 3.233zm0-5.172a1.939 1.939 0 101.936 1.939 1.942 1.942 0 00-1.936-1.939z"/><path data-name="Pfad 23" d="M15.73 20.687a3.232 3.232 0 113.232-3.232 3.236 3.236 0 01-3.232 3.232zm0-5.172a1.939 1.939 0 101.939 1.939 1.942 1.942 0 00-1.939-1.939z"/><path data-name="Pfad 24" d="M3.232 13.576a3.232 3.232 0 113.232-3.232 3.236 3.236 0 01-3.232 3.232zm0-5.172a1.939 1.939 0 101.939 1.939 1.942 1.942 0 00-1.939-1.939z"/><path data-name="Pfad 25" d="M5.482 9.714a.646.646 0 01-.321-1.208l8-4.56a.646.646 0 01.64 1.123l-8 4.56a.648.648 0 01-.319.085z"/><path data-name="Pfad 26" d="M13.48 16.824a.641.641 0 01-.319-.085l-8-4.56a.646.646 0 01.64-1.123l8 4.56a.647.647 0 01-.321 1.208z"/></g></svg>