<svg xmlns="http://www.w3.org/2000/svg" width="18.963" height="20.687" viewBox="0 0 18.963 20.687">
  <g id="Gruppe_7" data-name="Gruppe 7" transform="translate(-21)">
    <path id="Pfad_22" data-name="Pfad 22" d="M333.564,6.465A3.232,3.232,0,1,1,336.8,3.232,3.236,3.236,0,0,1,333.564,6.465Zm0-5.172A1.939,1.939,0,1,0,335.5,3.232,1.942,1.942,0,0,0,333.564,1.293Z" transform="translate(-296.834)"/>
    <path id="Pfad_23" data-name="Pfad 23" d="M333.564,358.465a3.232,3.232,0,1,1,3.232-3.232A3.236,3.236,0,0,1,333.564,358.465Zm0-5.172a1.939,1.939,0,1,0,1.939,1.939A1.942,1.942,0,0,0,333.564,353.293Z" transform="translate(-296.834 -337.778)"/>
    <path id="Pfad_24" data-name="Pfad 24" d="M24.232,182.465a3.232,3.232,0,1,1,3.232-3.232A3.236,3.236,0,0,1,24.232,182.465Zm0-5.172a1.939,1.939,0,1,0,1.939,1.939A1.942,1.942,0,0,0,24.232,177.293Z" transform="translate(0 -168.889)"/>
    <path id="Pfad_25" data-name="Pfad 25" d="M141.336,101.412a.646.646,0,0,1-.321-1.208l8-4.56a.646.646,0,0,1,.64,1.123l-8,4.56A.648.648,0,0,1,141.336,101.412Z" transform="translate(-114.854 -91.698)"/>
    <path id="Pfad_26" data-name="Pfad 26" d="M149.353,277.4a.641.641,0,0,1-.319-.085l-8-4.56a.646.646,0,0,1,.64-1.123l8,4.56a.647.647,0,0,1-.321,1.208Z" transform="translate(-114.873 -260.576)"/>
  </g>
</svg>
